<?xml version="1.0" encoding="utf-8"?>
<svg viewBox="0 0 24 24" width="24" height="24" xmlspace="preserve" xmlns="http://www.w3.org/2000/svg">
  <path d="M 16.677 8.197 C 16.737 8.195 16.805 8.194 16.871 8.181 L 23.455 8.181 C 23.538 8.194 23.625 8.184 23.708 8.202 C 23.729 8.207 23.751 8.244 23.742 8.262 C 23.74 8.27 23.74 8.278 23.735 8.286 C 23.694 8.331 23.654 8.376 23.614 8.417 C 23.292 8.742 22.969 9.065 22.647 9.391 C 22.574 9.462 22.505 9.538 22.436 9.611 C 22.407 9.643 22.378 9.673 22.349 9.703 C 22.162 9.889 21.978 10.077 21.792 10.26 C 20.595 11.459 19.398 12.657 18.199 13.856 C 17.426 14.628 16.655 15.402 15.884 16.177 C 14.637 17.424 13.391 18.668 12.147 19.915 C 11.794 20.27 11.441 20.623 11.087 20.976 C 10.998 21.066 10.907 21.153 10.809 21.236 C 10.523 21.474 10.199 21.63 9.84 21.717 C 9.667 21.758 9.49 21.777 9.313 21.796 C 9.263 21.801 9.211 21.801 9.162 21.798 C 7.971 21.76 7.192 21.004 6.876 20.245 C 6.753 19.952 6.684 19.649 6.68 19.331 C 6.679 19.263 6.679 19.196 6.679 19.126 C 6.679 15.592 6.679 12.062 6.68 8.53 C 6.68 8.446 6.683 8.361 6.687 8.277 C 6.688 8.238 6.73 8.201 6.77 8.199 C 6.796 8.197 6.82 8.195 6.845 8.199 L 10.936 8.199 C 11.156 8.194 11.378 8.194 11.595 8.195 C 11.628 8.195 11.664 8.202 11.697 8.208 C 11.712 8.21 11.741 8.242 11.745 8.261 C 11.748 8.286 11.756 8.311 11.756 8.335 C 11.758 8.428 11.758 8.521 11.758 8.613 L 11.758 12.706 C 11.758 12.773 11.756 12.84 11.758 12.909 C 11.76 12.949 11.747 12.993 11.78 13.028 C 11.802 13.049 11.824 13.038 11.901 12.96 L 12.046 12.817 L 13.97 10.893 C 14.371 10.492 14.771 10.089 15.171 9.687 C 15.226 9.634 15.275 9.577 15.328 9.521 C 15.37 9.478 15.408 9.437 15.451 9.394 L 16.476 8.37 C 16.539 8.306 16.595 8.241 16.677 8.197 Z M 0.274 10.732 L 0.274 2.449 C 0.263 2.388 0.258 2.33 0.272 2.271 C 0.279 2.245 0.313 2.209 0.342 2.206 C 0.369 2.205 0.393 2.2 0.418 2.2 C 0.469 2.199 0.569 2.2 0.569 2.2 L 4.932 2.2 C 5.008 2.2 5.084 2.202 5.161 2.208 C 5.198 2.209 5.24 2.252 5.244 2.29 C 5.246 2.306 5.25 2.323 5.25 2.341 C 5.251 2.382 5.251 2.425 5.251 2.469 L 5.251 17.328 C 5.251 17.836 5.25 18.345 5.253 18.852 C 5.254 19.081 5.233 19.306 5.195 19.533 C 5.144 19.825 5.058 20.109 4.93 20.378 C 4.912 20.418 4.894 20.454 4.872 20.491 C 4.561 21.068 4.081 21.431 3.451 21.593 C 3.319 21.627 3.186 21.65 3.049 21.657 C 2.889 21.664 2.729 21.67 2.566 21.659 C 2.134 21.634 1.735 21.509 1.372 21.272 C 1.135 21.119 0.936 20.922 0.775 20.69 C 0.586 20.418 0.456 20.115 0.379 19.79 C 0.313 19.527 0.27 19.26 0.265 18.986 C 0.263 18.821 0.256 18.661 0.256 18.501 L 0.256 13.471 C 0.256 13.471 0.263 11.642 0.263 10.732 L 0.274 10.732 Z"/>
</svg>