<?xml version="1.0" encoding="utf-8"?>
<svg viewBox="0 0 24 24" width="24" height="24" xmlspace="preserve" xmlns="http://www.w3.org/2000/svg">
  <path d="M 4.241 22.593 L 4.241 21.131 C 4.241 10.178 -1.504 1.97 4.177 0.881 C 9.376 -0.118 15.276 0.365 15.345 4.396 C 15.351 4.745 15.4 5.788 16.837 6.358 C 17.693 6.697 19.017 6.817 20.754 6.77 C 20.754 6.77 22.331 6.642 22.331 8.262 C 22.331 10.275 18.805 10.134 18.805 10.134 C 17.637 10.19 14.885 9.864 13.319 10.338 C 12.49 10.593 11.767 11.065 11.328 11.934 C 10.597 13.378 10.25 16.555 10.195 19.87 L 10.195 22.575 C 10.195 23.12 10.176 23.567 10.176 23.565 L 4.231 23.549 C 4.239 23.004 4.23 23.132 4.241 22.593 Z M 13.405 5.104 C 13.405 3.935 12.466 2.988 11.305 2.988 C 10.146 2.988 9.204 3.935 9.204 5.104 C 9.204 6.273 10.146 7.221 11.305 7.221 C 12.466 7.221 13.405 6.273 13.405 5.104 Z" style="fill-rule: nonzero;"/>
</svg>