<?xml version="1.0" encoding="utf-8"?>
<svg viewBox="0 0 24 24" width="24" height="24" xmlspace="preserve" xmlns="http://www.w3.org/2000/svg">
  <path d="M 22.916 6.367 C 22.702 5.188 21.684 4.328 20.503 4.06 C 18.734 3.685 15.46 3.417 11.919 3.417 C 8.379 3.417 5.054 3.685 3.283 4.06 C 2.104 4.328 1.084 5.133 0.869 6.367 C 0.653 7.709 0.439 9.586 0.439 12 C 0.439 14.414 0.653 16.291 0.922 17.633 C 1.137 18.812 2.156 19.672 3.335 19.94 C 5.213 20.315 8.432 20.583 11.973 20.583 C 15.515 20.583 18.734 20.315 20.612 19.94 C 21.791 19.672 22.81 18.867 23.025 17.633 C 23.239 16.291 23.507 14.36 23.562 12 C 23.453 9.586 23.185 7.709 22.916 6.367 Z M 9.023 15.756 L 9.023 8.245 L 15.568 12 L 9.023 15.756 Z"/>
</svg>