<?xml version="1.0" encoding="utf-8"?>
<svg viewBox="0 0 24 24" width="24" height="24" xmlspace="preserve" xmlns="http://www.w3.org/2000/svg">
  <path d="M 3.972 0.438 C 2.033 0.438 0.439 2.031 0.439 3.971 L 0.439 6.001 C 0.428 6.743 1.226 7.218 1.873 6.855 C 2.182 6.684 2.371 6.356 2.366 6.001 L 2.366 3.971 C 2.366 3.073 3.074 2.365 3.972 2.365 L 20.03 2.365 C 20.928 2.365 21.635 3.073 21.635 3.971 L 21.635 12.642 C 21.626 13.384 22.422 13.859 23.069 13.497 C 23.378 13.324 23.567 12.996 23.562 12.642 L 23.562 3.971 C 23.562 2.031 21.969 0.438 20.03 0.438 L 3.972 0.438 Z M 12.105 4.294 C 9.845 4.309 8.103 5.074 6.927 6.569 C 5.89 7.887 5.355 9.713 5.336 12.007 C 5.354 14.288 5.889 16.112 6.927 17.43 C 8.103 18.925 9.845 19.69 12.118 19.706 C 14.127 19.693 15.548 19.163 16.721 17.988 C 18.283 16.429 18.234 14.472 17.718 13.27 C 17.346 12.401 16.641 11.698 15.679 11.237 C 15.655 11.226 15.633 11.215 15.609 11.204 C 15.44 9.034 14.187 7.786 12.128 7.771 C 10.879 7.771 9.838 8.309 9.195 9.284 C 9.123 9.393 9.153 9.539 9.262 9.615 L 10.333 10.351 C 10.386 10.387 10.452 10.4 10.515 10.388 C 10.577 10.375 10.635 10.338 10.67 10.283 C 11.058 9.695 11.677 9.574 12.145 9.574 C 12.715 9.577 13.137 9.734 13.402 10.042 C 13.546 10.209 13.656 10.426 13.731 10.692 C 13.245 10.633 12.728 10.62 12.187 10.651 C 10.192 10.765 8.909 11.947 8.997 13.592 C 9.041 14.431 9.459 15.153 10.172 15.626 C 10.761 16.014 11.52 16.207 12.306 16.163 C 13.348 16.105 14.166 15.705 14.741 14.971 C 15.109 14.504 15.357 13.929 15.498 13.223 C 15.768 13.441 15.968 13.697 16.092 13.988 C 16.385 14.668 16.4 15.787 15.48 16.706 C 14.649 17.536 13.64 17.897 12.114 17.907 C 10.417 17.895 9.139 17.356 8.315 16.308 C 7.53 15.312 7.125 13.863 7.111 12.003 C 7.125 10.138 7.53 8.688 8.315 7.691 C 9.139 6.644 10.417 6.104 12.11 6.092 C 13.822 6.105 15.125 6.647 15.982 7.703 C 16.401 8.22 16.723 8.873 16.936 9.649 C 16.972 9.775 17.104 9.851 17.232 9.818 L 18.487 9.483 C 18.549 9.467 18.601 9.426 18.635 9.37 C 18.665 9.314 18.673 9.249 18.657 9.186 C 18.379 8.168 17.94 7.285 17.35 6.557 C 16.14 5.071 14.381 4.309 12.105 4.294 Z M 1.387 8.713 C 0.856 8.721 0.432 9.159 0.439 9.69 L 0.439 20.028 C 0.439 21.968 2.033 23.561 3.972 23.561 L 20.03 23.561 C 21.969 23.561 23.562 21.968 23.562 20.028 L 23.562 17.644 C 23.573 16.902 22.777 16.428 22.13 16.789 C 21.821 16.961 21.632 17.29 21.635 17.644 L 21.635 20.028 C 21.635 20.927 20.928 21.634 20.03 21.634 L 3.972 21.634 C 3.074 21.634 2.366 20.927 2.366 20.028 L 2.366 9.69 C 2.375 9.147 1.932 8.704 1.387 8.713 Z M 12.723 12.433 C 13.107 12.433 13.472 12.463 13.813 12.523 C 13.631 14.074 12.904 14.328 12.208 14.366 C 11.732 14.385 11.289 14.265 11.025 14.029 C 10.864 13.884 10.777 13.704 10.766 13.494 C 10.741 13.031 11.127 12.513 12.286 12.446 C 12.434 12.437 12.58 12.433 12.723 12.433 Z"/>
</svg>