<?xml version="1.0" encoding="utf-8"?>
<svg viewBox="0 0 24 24" width="24" height="24" xmlspace="preserve" xmlns="http://www.w3.org/2000/svg">
  <path d="M 11.999 0.579 C 5.701 0.579 0.578 5.702 0.578 12 C 0.578 18.297 5.701 23.422 11.999 23.422 C 18.296 23.422 23.421 18.299 23.421 12 C 23.421 5.702 18.296 0.579 11.999 0.579 Z M 16.834 17.134 C 16.69 17.349 16.454 17.465 16.213 17.465 C 16.071 17.465 15.927 17.425 15.801 17.34 C 14.572 16.522 12.492 15.975 10.754 15.977 C 8.911 15.977 7.529 16.429 7.514 16.435 C 7.125 16.567 6.703 16.354 6.573 15.963 C 6.443 15.574 6.653 15.151 7.044 15.022 C 7.11 15 8.671 14.489 10.754 14.487 C 12.492 14.487 14.908 14.955 16.628 16.101 C 16.97 16.33 17.061 16.792 16.834 17.134 Z M 18.319 14.086 C 18.158 14.344 17.879 14.487 17.595 14.487 C 17.441 14.487 17.285 14.447 17.145 14.358 C 14.919 12.972 12.632 12.679 10.661 12.696 C 8.436 12.715 6.657 13.14 6.626 13.149 C 6.177 13.276 5.703 13.014 5.575 12.561 C 5.447 12.109 5.709 11.637 6.162 11.509 C 6.299 11.47 8.076 11.033 10.506 11.013 C 12.722 10.995 15.484 11.316 18.047 12.911 C 18.446 13.161 18.568 13.686 18.319 14.086 Z M 19.801 10.522 C 19.615 10.836 19.283 11.013 18.943 11.013 C 18.772 11.013 18.599 10.968 18.442 10.875 C 15.846 9.352 12.694 9.029 10.504 9.026 C 10.493 9.026 10.484 9.026 10.473 9.026 C 7.825 9.026 5.787 9.492 5.767 9.497 C 5.231 9.62 4.699 9.289 4.575 8.755 C 4.451 8.221 4.781 7.689 5.316 7.563 C 5.408 7.542 7.585 7.041 10.473 7.041 C 10.484 7.041 10.496 7.041 10.506 7.041 C 12.941 7.045 16.469 7.415 19.446 9.163 C 19.919 9.441 20.078 10.05 19.801 10.522 Z"/>
</svg>