<?xml version="1.0" encoding="utf-8"?>
<svg viewBox="0 0 24 24" width="24" height="24" xmlspace="preserve" xmlns="http://www.w3.org/2000/svg">
  <path d="M 7.142 0.437 C 3.429 0.437 0.407 3.461 0.407 7.176 L 0.407 16.8 C 0.407 20.514 3.431 23.536 7.146 23.536 L 16.77 23.536 C 20.484 23.536 23.506 20.512 23.506 16.797 L 23.506 7.172 C 23.506 3.459 20.482 0.437 16.767 0.437 L 7.142 0.437 Z M 18.694 4.286 C 19.225 4.286 19.656 4.718 19.656 5.249 C 19.656 5.78 19.225 6.212 18.694 6.212 C 18.163 6.212 17.731 5.78 17.731 5.249 C 17.731 4.718 18.163 4.286 18.694 4.286 Z M 11.956 6.212 C 15.141 6.212 17.731 8.802 17.731 11.986 C 17.731 15.171 15.141 17.761 11.956 17.761 C 8.772 17.761 6.182 15.171 6.182 11.986 C 6.182 8.802 8.772 6.212 11.956 6.212 Z M 11.956 8.137 C 9.83 8.137 8.107 9.86 8.107 11.986 C 8.107 14.113 9.83 15.836 11.956 15.836 C 14.083 15.836 15.806 14.113 15.806 11.986 C 15.806 9.86 14.083 8.137 11.956 8.137 Z"/>
</svg>