<?xml version="1.0" encoding="utf-8"?>
<svg viewBox="0 0 24 24" width="24" height="24" xmlspace="preserve" xmlns="http://www.w3.org/2000/svg">
  <path d="M 23.503 10.523 L 23.503 22.674 C 23.503 23.13 23.135 23.502 22.682 23.502 L 12.822 23.502 C 12.368 23.502 12 23.13 12 22.674 L 12 20.411 C 12.046 17.638 12.337 14.98 12.948 13.772 C 13.315 13.045 13.92 12.65 14.614 12.437 C 15.924 12.04 18.226 12.313 19.203 12.266 C 19.203 12.266 22.153 12.384 22.153 10.7 C 22.153 9.345 20.834 9.452 20.834 9.452 C 19.381 9.491 18.273 9.391 17.557 9.107 C 16.355 8.63 16.314 7.758 16.309 7.466 C 16.251 4.093 11.315 3.689 6.966 4.525 C 2.213 5.436 7.019 12.303 7.019 21.466 L 7.019 22.689 C 7.01 23.14 6.649 23.503 6.2 23.503 L 1.318 23.503 C 0.864 23.503 0.496 23.133 0.496 22.675 L 0.496 1.662 C 0.496 1.204 0.864 0.833 1.318 0.833 L 5.907 0.833 C 6.361 0.833 6.729 1.204 6.729 1.662 C 6.729 2.34 7.487 2.718 8.035 2.323 C 9.685 1.131 11.803 0.496 14.174 0.496 C 19.485 0.496 23.5 3.615 23.5 10.523 L 23.503 10.523 Z M 14.686 8.058 C 14.686 7.08 13.9 6.288 12.929 6.288 C 11.959 6.288 11.171 7.08 11.171 8.058 C 11.171 9.036 11.959 9.829 12.929 9.829 C 13.9 9.829 14.686 9.036 14.686 8.058 Z" fill="black"/>
</svg>