<svg viewBox="-150 150 1536 864" xmlns="http://www.w3.org/2000/svg" xmlns:svg="http://www.w3.org/2000/svg" class="h-8 fill-white hover:opacity-70" enable-background="new 0 0 1536 864" xml:space="preserve">
  <path d="m900.7,391.4c3.3,-0.1 7,-0.2 10.7,-0.9l361.1,0c4.6,0.7 9.3,0.2 13.9,1.2c1.1,0.2 2.3,2.3 1.8,3.3c-0.1,0.4 -0.1,0.9 -0.4,1.3c-2.2,2.4 -4.4,4.9 -6.6,7.2c-17.7,17.8 -35.4,35.5 -53.1,53.4c-3.9,3.9 -7.7,8.1 -11.5,12.1c-1.6,1.7 -3.2,3.4 -4.8,5c-10.2,10.2 -20.3,20.5 -30.5,30.6c-65.7,65.7 -131.4,131.4 -197.1,197.2c-42.4,42.4 -84.7,84.8 -127,127.3c-68.4,68.4 -136.7,136.7 -205,205.1c-19.4,19.4 -38.7,38.8 -58.1,58.2c-4.9,4.9 -9.9,9.7 -15.3,14.2c-15.6,13.1 -33.4,21.6 -53.1,26.4c-9.5,2.3 -19.2,3.3 -28.9,4.3c-2.8,0.3 -5.6,0.3 -8.3,0.1c-65.3,-2 -108.1,-43.5 -125.4,-85.2c-6.7,-16 -10.5,-32.7 -10.7,-50.1c-0.1,-3.7 -0.1,-7.4 -0.1,-11.2c0,-193.8 0,-387.5 0.1,-581.2c0,-4.6 0.1,-9.3 0.3,-13.9c0.1,-2.1 2.4,-4.2 4.6,-4.3c1.4,-0.1 2.8,-0.2 4.1,0l224.4,0c12.1,-0.3 24.2,-0.3 36.2,-0.2c1.8,0 3.7,0.4 5.5,0.7c0.9,0.1 2.5,1.9 2.7,2.9c0.2,1.4 0.6,2.8 0.6,4.1c0.1,5.1 0.1,10.2 0.1,15.3l0,224.4c0,3.7 -0.1,7.4 0,11.2c0.1,2.2 -0.6,4.6 1.2,6.5c1.2,1.2 2.4,0.5 6.7,-3.7l7.9,-7.9l105.5,-105.5c22,-22 44,-44.1 65.9,-66.1c3,-3 5.7,-6.1 8.6,-9.1c2.3,-2.4 4.4,-4.7 6.8,-7l56.2,-56.2c3.5,-3.5 6.5,-7.1 11,-9.5zm-899.7,139.1l0,-454.4c-0.6,-3.3 -0.9,-6.5 -0.1,-9.7c0.4,-1.5 2.3,-3.4 3.8,-3.6c1.5,-0.1 2.8,-0.3 4.2,-0.3c2.8,-0.1 8.3,0 8.3,0l239.3,0c4.1,0 8.3,0.1 12.5,0.4c2.1,0.1 4.4,2.4 4.6,4.5c0.1,0.9 0.3,1.8 0.3,2.8c0.1,2.3 0.1,4.6 0.1,7l0,815c0,27.9 -0.1,55.8 0.1,83.6c0.1,12.6 -1.1,25 -3.2,37.4c-2.8,16 -7.5,31.6 -14.5,46.4c-1,2.1 -2,4.1 -3.2,6.2c-17.1,31.6 -43.4,51.5 -78,60.4c-7.2,1.9 -14.5,3.1 -22,3.5c-8.8,0.4 -17.6,0.7 -26.5,0.1c-23.7,-1.4 -45.6,-8.2 -65.5,-21.2c-13,-8.4 -23.9,-19.2 -32.7,-31.9c-10.4,-15 -17.5,-31.6 -21.8,-49.4c-3.5,-14.4 -5.9,-29.1 -6.2,-44.1c-0.1,-9 -0.5,-17.8 -0.5,-26.6l0,-275.9s0.4,-100.3 0.4,-150.2l0.6,0z" fill="white" id="svg_1"/>
</svg>